<svg xmlns="http://www.w3.org/2000/svg" width="150" height="150" viewBox="0 0 150 150"><circle cx="75" cy="75" r="75"/><g fill="#FFF"><path d="M74.993 4.531h-.197c-.483 0-.952.016-1.436.016a69.876 69.876 0 0 0-11.159 1.179c-1.391 1.028-2.252 1.709-2.646 2.117-.499.498-.272.574.454.393 2.252-.574 9.419-3.658 14.786-3.658 1.028 0 2.011.121 2.858.393 3.84.212 10.478.484 11.49 6.396.65 1.588 2.873.317 1.604 4.143-2.088-1.149-6.199-4.838-16.722-4.444-3.976.151-8.86.877-14.893 2.539-6.728 1.406-12.231 5.564-15.936 11.052-.756 2.692-1.013 5.413-1.437 7.816-1.134 6.351-3.039 7.938-1.526 11.099 5.413 11.263-1.603 15.875 4.218 17.599 4.172 1.239 4.46-1.044 7.982-6.698 2.615-4.203 7.605-5.292 9.994-5.579h.075a5.35 5.35 0 0 1 1.194-.091h.106c1.27.061 2.51.469 3.961 1.194 2.223.953 2.223.318 2.223 2.238 0 1.587.649 1.904 1.92 1.904.786-.166 1.527-3.114 2.147-3.068.619.03 2.389 1.874 2.463 3.553.092 1.662-3.008 5.05-5.774 5.609-.529.105-1.014.182-1.437.211-.529-.15 2.253-1.935 3.387-3.765.408-.681.015-1.209-.65-1.633 0 .046-.015.076-.03.121 0 .03 0 .061-.015.075a.722.722 0 0 1-.076.197c-.015.03-.03.061-.045.075a.822.822 0 0 1-.182.212 1.328 1.328 0 0 1-.242.166c-.075.045-.166.075-.257.105-1.148.378-3.205-.061-4.4-.257.303-.378.605-.619.877-.786.151-.121.303-.211.424-.287.015.016.015 0 .015 0 .469-.317.484-.574-.68-2.116H66.16c.151 1.148-.121 2.041-.604 2.66h-.015a1.225 1.225 0 0 1-.228.258 1.706 1.706 0 0 1-.514.408s0 .015-.015 0a.793.793 0 0 1-.242.136s-.015.015-.03.015a3.013 3.013 0 0 1-2.056.182 2.114 2.114 0 0 1-.272-.105s0 .015-.016 0a3.362 3.362 0 0 1-.453-.227l-.015-.016a2.614 2.614 0 0 1-.408-.317c0-.016-.016-.016-.016-.016-.574-.574-.938-1.451-.862-2.66-1.603.635-2.237.952-2.872 2.237.105.075.196.136.271.196h.016c.136.03.271.076.423.137-.091-.016-.166-.016-.242-.016.258.151.469.257.666.317.09.03.196.061.302.076.046.015.106.03.166.03.137.03.288.045.454.06.061.016.121.016.196.03h.03c.167.03.363.061.59.121-.015.016-.045.046-.061.046-.892.877-.59.271-1.542.589-.091.061-.182.121-.272.197a6.206 6.206 0 0 1-.574.423l-.015.016c-.741.499-1.8.922-3.871.499-.771.665-1.315 1.331-1.225 1.845.121.741 2.63 2.948-.046 4.354-.015 0-.03.016-.045.03h-.016c-.317.137-.544.317-.71.59-.802 1.331 1.195 2.117.272 3.916s-1.845 1.648-2.888 5.458c-1.028 3.81 1.104 7.348 2.615 8.738 1.527 1.407 1.497 6.956 1.905 9.769 0 .044.016.09.03.136.408 2.706 1.981 3.84 3.553 3.976 1.603.136 3.674-1.904 4.869-1.088.544.378 1.118-.576 1.587-1.754-1.346-2.299-6.259-3.719 1.542-10.6 1.27-2.555 3.507-3.507 5.427-4.476 1.906-.952 3.508-5.095 4.778-4.777 1.603.636 9.268 3.508 7.983 4.777 1.285-.952 3.205-3.188 4.476-3.507.483-.483 2.192 4.294 6.44 9.041 2.449 2.752 4.369 8.347 3.129 12.035-.635-.65-.635-3.841-3.824-4.476-.953-.317-1.92.317-2.555.317-.318 0-1.92-.635-3.508-.952-6.396 0-11.49 1.921-15.013 1.921-.635-.334-1.588-2.238-3.508-2.556-1.965 2.374-3.341 4.021-3.794 5.519-.726 2.449 1.013 4.49 6.667 8.526 0 6.971 7.378 1.438 9.752-3.009 1.164-2.176-2.374-1.556-1.77-4.021 2.873 0 5.428.317 8.301.317.091.242-4.174 9.844-.59 9.602 1.482-.106-2.464 5.276 6.335-3.523 1.92-2.556-1.587.317.968-2.888 1.134-.938 1.148-3.87 1.904-4.021.515-.105 1.391 1.572 3.191 4.021.967-1.904 1.602-3.508 2.555-5.428 5.428-13.396 1.285-26.806 1.603-40.852.317-8.301-.317-13.411-2.238-21.394-.952-2.555-5.458-13.018-6.984-16.162 7.362 1.754 17.492 55.063 18.157 65.646 0 3.19-2.978 11.188-.952 21.076.529 2.571 2.313 9.646 13.003 16.117a1.868 1.868 0 0 0-.621-.106c-1.346 0-2.357 1.543-3.371 2.935 1.135.347 2.344.938 3.553 1.662 12.625-12.73 20.441-30.253 20.441-49.56.005-38.856-31.608-70.47-70.464-70.47zM56.895 42.904c-1.92.786-1.587 1.708-3.507 1.859 0-1.588.952-3.901 2.237-4.96 1.587-1.723 2.873-1.813 5.11-1.663 6.698-.196 10.537-2.403 11.173 1.693-2.237 4.007-8.618.031-15.013 3.071zm42.151 13.787c-.951-2.222 1.271-2.222-1.285-3.507-.635 6.381-6.063 3.507-5.744 0-1.588 0-1.904 0-2.555 1.92.332.635 1.285.952 2.236.952 0 2.556-.951-.317 1.285 2.873l-1.92.968c-1.92-1.603-2.555-1.285-3.825-4.476-.649-1.603-2.555-4.792-.317-5.428 1.588.953 0 2.556 1.905 1.921.636-.317 4.143-3.826 8.603-1.618-.136-.045-.619-.182-.619.65 2.236 1.285 2.236.635 3.84 2.872-.001 1.921-.001 2.556-1.604 2.873zm-3.507-15.845c1.905.953 5.11 1.921 5.428 3.191-1.603.952-3.206-.635-5.428-.317-4.476.317-4.157.317-6.077-.953 0-.968.967-2.238 1.602-3.19 3.825-.332 3.19.317 4.475 1.269zM94.254 119.586c-2.192.47-4.31 1.059-6.335 1.648-3.9 3.961-9.117 7-11.656 8.194-2.707 1.286-7.348.969-6.698-1.995.257-1.18-.56-3.145-1.346-5.065-10.643-3.492-14.801-11.672-18.475-15.98-1.587-1.875-3.084-3.023-4.974-2.767-3.916.589 2.585 8.134.952 14.378-.423 1.679-1.36 3.145-2.464 4.49 3.598 9.224 11.687 17.508 17.795 21.03.574.332 1.148.62 1.754.877a70.417 70.417 0 0 0 12.186 1.073c.528 0 1.058-.015 1.586-.015a81.51 81.51 0 0 0 4.703-.287c1.859-.483 3.477-1.059 4.687-1.648 4.476-2.161 10.901-14.393 12.095-14.952-2.313-2.752-3.81-5.594-3.81-9.934v.953z"/><path d="M89.144 88.941c-.952-.635-1.588-1.604-2.555-2.238 0 0 1.179-.226 1.496-.574.182-.211.424-.816.529-1.633-.271-1.224-.483-2.253-.74-2.253-.953 0-2.556-.649-4.477-.967-1.92.635-5.744 2.236-9.887 2.873 0 2.236 1.271 2.871 3.508 2.871-.953.65-3.508 1.286-4.476 1.921.001 1.602 16.602 2.872 16.602 0z"/></g></svg>