<?xml version="1.0" encoding="utf-8"?>
<!-- Generator: Adobe Illustrator 15.1.0, SVG Export Plug-In . SVG Version: 6.00 Build 0)  -->
<!DOCTYPE svg PUBLIC "-//W3C//DTD SVG 1.1//EN" "http://www.w3.org/Graphics/SVG/1.1/DTD/svg11.dtd">
<svg version="1.1" id="Layer_1" xmlns="http://www.w3.org/2000/svg" xmlns:xlink="http://www.w3.org/1999/xlink" x="0px" y="0px"
	 width="150px" height="150px" viewBox="0 0 150 150" enable-background="new 0 0 150 150" xml:space="preserve">
<g>
	<circle fill="#FFFFFF" cx="75" cy="75" r="74.194"/>
	<path fill="none" stroke="#FFF200" stroke-width="0.1338" d="M58.828,61.32c-0.083-0.217-0.107-0.443-0.101-0.64
		C58.792,60.881,58.828,61.095,58.828,61.32z"/>
	<path d="M74.999,150C33.645,150,0,116.355,0,75C0,33.644,33.645,0,74.999,0C116.354,0,150,33.644,150,75
		C150,116.355,116.354,150,74.999,150z M74.999,1.61C34.533,1.61,1.611,34.533,1.611,75c0,40.467,32.922,73.389,73.388,73.389
		c40.469,0,73.391-32.922,73.391-73.389C148.39,34.533,115.468,1.61,74.999,1.61z"/>
	<path d="M145.155,84.297l-0.064,0.461c-4.791,34.783-34.929,61.006-70.09,61.006c-35.162,0-65.299-26.223-70.091-61.006
		l-0.064-0.461h17.613l0.058,0.33c4.621,25.338,26.688,43.725,52.484,43.725c25.787,0,47.862-18.387,52.485-43.725l0.056-0.33
		H145.155z"/>
	<g>
		<path d="M145.155,65.701h-17.613l-0.056-0.33c-4.623-25.336-26.698-43.723-52.485-43.723c-25.796,0-47.871,18.387-52.484,43.723
			l-0.058,0.33H4.846l0.064-0.459C9.702,30.466,39.839,4.236,75.001,4.236c35.161,0,65.299,26.23,70.09,61.006L145.155,65.701z"/>
	</g>
	<polygon fill="#FFFFFF" points="134.251,52.884 135.458,56.591 139.355,56.591 136.202,58.883 137.405,62.591 134.251,60.299 
		131.098,62.591 132.302,58.883 129.148,56.591 133.048,56.591 	"/>
	<polygon fill="#FFFFFF" points="134.251,87.412 135.458,91.119 139.355,91.119 136.202,93.412 137.405,97.117 134.251,94.828 
		131.098,97.117 132.302,93.412 129.148,91.119 133.048,91.119 	"/>
	<g>
		<g>
			<g>
				<g>
					<path d="M30.448,79.469l-0.174-0.422l2.58-3.391c0.444-0.6,0.775-1.104,0.992-1.516c0.218-0.41,0.327-0.78,0.327-1.109
						c0-0.299-0.109-0.539-0.327-0.717c-0.217-0.179-0.52-0.269-0.906-0.269c-0.367,0-0.71,0.065-1.028,0.195
						c-0.319,0.13-0.604,0.269-0.855,0.413c-0.154-0.338-0.29-0.681-0.405-1.028c-0.116-0.349-0.184-0.706-0.203-1.073
						c0.328-0.184,0.729-0.343,1.203-0.479c0.473-0.135,1.01-0.203,1.609-0.203c0.492,0,0.949,0.059,1.369,0.174
						c0.42,0.116,0.785,0.293,1.095,0.529c0.309,0.237,0.552,0.534,0.725,0.893c0.174,0.357,0.261,0.782,0.261,1.274
						c0,0.349-0.043,0.677-0.13,0.986s-0.198,0.604-0.334,0.884c-0.135,0.281-0.288,0.546-0.456,0.798
						c-0.17,0.251-0.336,0.492-0.501,0.726l-0.825,1.158H37c0.087,0.406,0.13,0.76,0.13,1.059c0,0.338-0.043,0.711-0.13,1.117
						H30.448z"/>
					<path d="M44.233,69.871c0.648,0,1.209,0.126,1.682,0.377c0.474,0.252,0.865,0.597,1.174,1.037
						c0.31,0.439,0.537,0.959,0.682,1.559c0.146,0.6,0.219,1.246,0.219,1.942c0,0.695-0.078,1.339-0.232,1.927
						c-0.155,0.59-0.387,1.104-0.696,1.537c-0.31,0.436-0.705,0.775-1.188,1.021c-0.484,0.248-1.049,0.369-1.695,0.369
						c-0.648,0-1.209-0.121-1.682-0.369c-0.475-0.246-0.863-0.586-1.168-1.021c-0.305-0.434-0.531-0.947-0.682-1.537
						c-0.15-0.588-0.225-1.232-0.225-1.927c0-0.696,0.078-1.343,0.232-1.942s0.387-1.119,0.696-1.559
						c0.309-0.44,0.702-0.785,1.181-1.037C43.01,69.997,43.577,69.871,44.233,69.871z M44.205,72.06
						c-0.386,0-0.687,0.227-0.899,0.681c-0.213,0.455-0.318,1.136-0.318,2.045c0,0.898,0.109,1.576,0.326,2.029
						c0.218,0.455,0.515,0.682,0.892,0.682c0.367,0,0.657-0.227,0.87-0.682c0.212-0.453,0.318-1.13,0.318-2.029
						c0-0.909-0.106-1.59-0.318-2.045C44.862,72.287,44.572,72.06,44.205,72.06z"/>
				</g>
			</g>
			<g>
				<g>
					<path d="M102.358,69.871c0.648,0,1.209,0.126,1.682,0.377c0.475,0.252,0.865,0.597,1.175,1.037
						c0.31,0.439,0.536,0.959,0.681,1.559c0.146,0.6,0.219,1.246,0.219,1.942c0,0.695-0.078,1.339-0.232,1.927
						c-0.155,0.59-0.387,1.104-0.696,1.537c-0.309,0.436-0.705,0.775-1.188,1.021c-0.483,0.248-1.049,0.369-1.695,0.369
						c-0.648,0-1.209-0.121-1.682-0.369c-0.474-0.246-0.863-0.586-1.168-1.021c-0.305-0.434-0.531-0.947-0.682-1.537
						c-0.15-0.588-0.225-1.232-0.225-1.927c0-0.696,0.078-1.343,0.232-1.942c0.155-0.6,0.387-1.119,0.696-1.559
						c0.31-0.44,0.702-0.785,1.181-1.037C101.135,69.997,101.702,69.871,102.358,69.871z M102.33,72.06
						c-0.386,0-0.686,0.227-0.899,0.681c-0.212,0.455-0.318,1.136-0.318,2.045c0,0.898,0.109,1.576,0.326,2.029
						c0.218,0.455,0.515,0.682,0.892,0.682c0.367,0,0.657-0.227,0.87-0.682c0.212-0.453,0.318-1.13,0.318-2.029
						c0-0.909-0.106-1.59-0.318-2.045C102.987,72.287,102.697,72.06,102.33,72.06z"/>
					<path d="M117.088,76.41c0.087,0.375,0.13,0.734,0.13,1.072s-0.043,0.695-0.13,1.072h-0.769v1.711
						c-0.203,0.047-0.403,0.08-0.602,0.094s-0.389,0.021-0.572,0.021c-0.193,0-0.39-0.008-0.588-0.021
						c-0.197-0.014-0.402-0.047-0.615-0.094v-1.711h-4.61l-0.246-0.436l3.899-8.35c0.377,0.049,0.746,0.133,1.109,0.254
						c0.362,0.121,0.712,0.313,1.051,0.572l-2.639,5.815h1.436v-1.625c0.213-0.049,0.418-0.08,0.615-0.095
						c0.198-0.015,0.395-0.021,0.588-0.021c0.184,0,0.374,0.007,0.572,0.021s0.398,0.046,0.602,0.095v1.625H117.088z"/>
				</g>
			</g>
		</g>
	</g>
	<g>
		<path fill="#FFFFFF" d="M39.092,31.833c-0.54,0.451-1.129,0.835-1.767,1.15c-0.637,0.314-1.294,0.561-1.971,0.736
			c-0.014,0.012-0.061,0.027-0.139,0.045c-0.084,0.012-0.133,0.011-0.145-0.003c-0.006-0.007-0.016-0.046-0.027-0.118
			c-0.014-0.072-0.03-0.162-0.05-0.27s-0.04-0.232-0.064-0.373c-0.024-0.14-0.048-0.281-0.075-0.426
			c-0.045-0.293-0.09-0.571-0.131-0.833c-0.044-0.262-0.076-0.448-0.1-0.561c0.119-0.04,0.241-0.071,0.364-0.092
			c0.532-0.124,1.03-0.293,1.491-0.508c0.463-0.215,0.904-0.499,1.327-0.853c0.117-0.099,0.239-0.209,0.366-0.332
			c0.125-0.125,0.227-0.254,0.303-0.389c0.075-0.135,0.111-0.276,0.111-0.425c-0.001-0.148-0.068-0.304-0.203-0.464
			c-0.065-0.078-0.143-0.129-0.234-0.153s-0.188-0.034-0.287-0.027c-0.102,0.007-0.201,0.022-0.3,0.044
			c-0.099,0.023-0.187,0.051-0.267,0.082c-0.193,0.065-0.377,0.148-0.553,0.247c-0.176,0.101-0.354,0.196-0.537,0.288
			c-0.24,0.12-0.477,0.239-0.705,0.359c-0.229,0.121-0.457,0.228-0.684,0.322c-0.234,0.101-0.463,0.188-0.689,0.264
			c-0.225,0.076-0.448,0.129-0.67,0.16c-0.451,0.066-0.891,0.021-1.323-0.135c-0.431-0.157-0.859-0.488-1.281-0.992
			c-0.147-0.176-0.276-0.368-0.388-0.579c-0.112-0.21-0.197-0.428-0.256-0.653c-0.118-0.449-0.145-0.881-0.078-1.295
			c0.066-0.412,0.195-0.802,0.391-1.168c0.194-0.365,0.434-0.709,0.717-1.03c0.285-0.321,0.59-0.618,0.915-0.891
			c0.533-0.446,1.113-0.822,1.741-1.128c0.629-0.304,1.301-0.506,2.02-0.604c0.074,0.44,0.149,0.871,0.227,1.292
			c0.074,0.42,0.152,0.848,0.232,1.28c-0.565,0.141-1.089,0.306-1.572,0.495c-0.482,0.191-0.941,0.469-1.377,0.834
			c-0.104,0.086-0.209,0.184-0.314,0.289c-0.105,0.106-0.189,0.221-0.251,0.345c-0.062,0.123-0.091,0.25-0.085,0.383
			c0.005,0.132,0.063,0.265,0.174,0.397c0.083,0.099,0.174,0.165,0.273,0.2c0.113,0.036,0.258,0.03,0.436-0.018
			s0.381-0.126,0.608-0.233c0.229-0.107,0.472-0.231,0.731-0.372c0.26-0.14,0.537-0.28,0.831-0.42
			c0.288-0.134,0.585-0.262,0.892-0.381c0.306-0.12,0.612-0.21,0.92-0.272c0.309-0.061,0.611-0.083,0.908-0.064
			c0.299,0.018,0.586,0.095,0.865,0.229c0.211,0.097,0.406,0.227,0.589,0.388c0.184,0.162,0.351,0.334,0.503,0.516
			c0.445,0.531,0.703,1.058,0.775,1.58c0.072,0.521,0.02,1.027-0.16,1.516c-0.18,0.489-0.453,0.957-0.822,1.402
			S39.527,31.468,39.092,31.833z"/>
		<path fill="#FFFFFF" d="M53.251,18.31c0.208,0.438,0.334,0.883,0.377,1.338s0.011,0.9-0.096,1.336
			c-0.107,0.436-0.281,0.851-0.523,1.244c-0.242,0.395-0.537,0.75-0.885,1.068c-0.151,0.144-0.313,0.277-0.484,0.399
			s-0.352,0.229-0.539,0.318c-0.187,0.09-0.379,0.161-0.578,0.218c-0.199,0.054-0.402,0.096-0.609,0.123
			c-0.466,0.072-0.929,0.079-1.387,0.02c-0.459-0.059-0.891-0.184-1.297-0.373s-0.773-0.444-1.102-0.764
			c-0.328-0.318-0.596-0.695-0.805-1.132l-2.908-6.075l2.638-1.264l2.831,5.915c0.088,0.182,0.203,0.33,0.35,0.448
			c0.146,0.117,0.308,0.201,0.482,0.254c0.176,0.053,0.357,0.072,0.546,0.058s0.368-0.062,0.54-0.144
			c0.178-0.086,0.332-0.198,0.462-0.336c0.129-0.138,0.229-0.291,0.297-0.461c0.069-0.17,0.104-0.349,0.104-0.535
			c0-0.188-0.043-0.372-0.131-0.553l-2.83-5.916l2.638-1.263L53.251,18.31z"/>
		<path fill="#FFFFFF" d="M66.138,18.913l-5.85,1.134l-2.021-10.43l5.398-1.046c0.194-0.038,0.401-0.052,0.619-0.043
			c0.218,0.009,0.436,0.041,0.652,0.097c0.219,0.055,0.426,0.129,0.623,0.221c0.197,0.092,0.372,0.203,0.525,0.331
			c0.274,0.226,0.503,0.494,0.688,0.801c0.184,0.309,0.309,0.638,0.377,0.987c0.078,0.403,0.074,0.806-0.014,1.208
			c-0.088,0.403-0.255,0.772-0.503,1.109c0.22,0.088,0.429,0.205,0.628,0.353c0.197,0.147,0.375,0.317,0.533,0.51
			c0.156,0.192,0.291,0.401,0.404,0.626c0.112,0.225,0.189,0.449,0.233,0.674c0.076,0.394,0.075,0.781-0.003,1.164
			c-0.076,0.383-0.221,0.731-0.432,1.046c-0.209,0.315-0.473,0.585-0.787,0.808C66.894,18.685,66.537,18.835,66.138,18.913z
			 M63.233,10.83l-1.848,0.357l0.412,2.124l1.847-0.358c0.284-0.056,0.511-0.208,0.678-0.459c0.167-0.251,0.224-0.52,0.167-0.807
			c-0.055-0.287-0.207-0.515-0.457-0.686C63.783,10.832,63.518,10.774,63.233,10.83z M64.105,14.831l-1.94,0.376l0.408,2.109
			l1.941-0.375c0.291-0.057,0.521-0.209,0.685-0.453c0.163-0.246,0.217-0.518,0.159-0.813c-0.055-0.287-0.205-0.514-0.449-0.68
			C64.665,14.828,64.397,14.773,64.105,14.831z"/>
		<path fill="#FFFFFF" d="M89.733,20.195l-0.19-1.551L86.394,17.9l-0.865,1.301l-2.885-0.683l6.227-9.444l2.412,0.57l1.337,11.233
			L89.733,20.195z M89.191,13.131l-1.464,2.538l1.622,0.383L89.191,13.131z"/>
		<path fill="#FFFFFF" d="M103.341,26.033l-0.005-3.761l-1.552-0.86l-1.582,2.881l-2.533-1.405l5.15-9.292l4.606,2.553
			c0.222,0.123,0.423,0.29,0.606,0.501c0.182,0.211,0.341,0.444,0.477,0.702s0.246,0.525,0.33,0.802s0.139,0.542,0.163,0.795
			c0.029,0.319,0.001,0.655-0.087,1.009s-0.209,0.67-0.363,0.949c-0.257,0.463-0.602,0.835-1.037,1.115
			c-0.434,0.281-0.916,0.453-1.445,0.514l0.031,5.027L103.341,26.033z M105.556,17.82l-1.434-0.795l-1.108,2l1.433,0.795
			c0.143,0.078,0.291,0.127,0.445,0.146c0.156,0.019,0.306,0.009,0.451-0.03s0.279-0.103,0.399-0.19
			c0.121-0.089,0.222-0.204,0.302-0.347c0.078-0.143,0.123-0.29,0.134-0.439s-0.005-0.296-0.05-0.439
			c-0.045-0.145-0.115-0.277-0.213-0.398S105.697,17.899,105.556,17.82z"/>
		<path fill="#FFFFFF" d="M121.454,30.218l-2.118-1.957l-5.425,5.875l-2.1-1.939l5.426-5.874l-2.121-1.956l-0.009-0.271l1.654-1.79
			l6.616,6.109l-1.654,1.791L121.454,30.218z"/>
	</g>
	<g>
		<g>
			<path fill="#FFFFFF" d="M44.349,126.275l-2.373-1.662l-4.587,6.549l-2.352-1.646l4.587-6.549l-2.373-1.662l-0.047-0.268
				l1.398-1.996l7.411,5.191l-1.398,1.996L44.349,126.275z"/>
			<path fill="#FFFFFF" d="M51.074,138.242l0.06-1.563l-3.003-1.246l-1.065,1.145l-2.752-1.143l7.682-8.316l2.299,0.955
				l-0.467,11.311L51.074,138.242z M51.665,131.178l-1.856,2.27l1.547,0.643L51.665,131.178z"/>
			<path fill="#FFFFFF" d="M69.267,134.453l-2.857-0.482l-1.332,7.885l-2.831-0.479l1.331-7.883l-2.857-0.484l-0.156-0.219
				l0.406-2.404l8.922,1.506l-0.406,2.402L69.267,134.453z"/>
			<path fill="#FFFFFF" d="M83.663,134.1l-2.891,0.209l0.576,7.975l-2.865,0.207l-0.574-7.975l-2.891,0.209l-0.204-0.178
				l-0.175-2.432l9.024-0.65l0.175,2.43L83.663,134.1z"/>
			<path fill="#FFFFFF" d="M96.153,139.531c-0.742,0.244-1.481,0.332-2.219,0.268c-0.738-0.066-1.427-0.26-2.067-0.582
				c-0.64-0.322-1.208-0.764-1.701-1.322c-0.494-0.559-0.862-1.207-1.104-1.943c-0.242-0.736-0.331-1.477-0.263-2.219
				c0.065-0.742,0.262-1.434,0.586-2.074c0.324-0.639,0.764-1.207,1.317-1.701s1.2-0.861,1.942-1.105
				c0.732-0.24,1.471-0.326,2.213-0.258c0.744,0.068,1.436,0.262,2.076,0.586c0.641,0.322,1.207,0.764,1.701,1.322
				s0.861,1.205,1.104,1.943c0.242,0.736,0.33,1.477,0.264,2.219s-0.262,1.434-0.586,2.072c-0.326,0.641-0.768,1.205-1.326,1.697
				C97.53,138.924,96.885,139.289,96.153,139.531z M93.491,131.426c-0.38,0.127-0.705,0.316-0.979,0.574s-0.485,0.551-0.635,0.879
				c-0.15,0.328-0.238,0.682-0.262,1.059c-0.024,0.379,0.025,0.754,0.147,1.127c0.12,0.363,0.302,0.693,0.546,0.986
				c0.245,0.295,0.525,0.529,0.84,0.705c0.315,0.174,0.66,0.285,1.033,0.33c0.373,0.047,0.748,0.006,1.129-0.117
				c0.379-0.125,0.705-0.316,0.979-0.574s0.484-0.551,0.635-0.879c0.15-0.326,0.236-0.682,0.259-1.064
				c0.022-0.381-0.026-0.754-0.146-1.119c-0.123-0.373-0.306-0.705-0.549-0.994s-0.521-0.523-0.838-0.697
				c-0.314-0.176-0.658-0.287-1.032-0.332C94.247,131.264,93.87,131.303,93.491,131.426z"/>
			<path fill="#FFFFFF" d="M112.642,131.518c-0.648,0.434-1.338,0.717-2.065,0.852c-0.729,0.135-1.444,0.133-2.147-0.008
				c-0.703-0.139-1.368-0.412-1.994-0.818c-0.625-0.406-1.152-0.932-1.582-1.576c-0.432-0.645-0.714-1.334-0.85-2.068
				c-0.134-0.732-0.131-1.451,0.011-2.152c0.142-0.705,0.413-1.369,0.813-1.994c0.401-0.623,0.928-1.152,1.576-1.586
				c0.641-0.426,1.328-0.707,2.063-0.842c0.733-0.133,1.452-0.129,2.156,0.01c0.704,0.141,1.368,0.412,1.993,0.818
				s1.153,0.932,1.584,1.576c0.432,0.646,0.713,1.336,0.848,2.068s0.131,1.451-0.01,2.154s-0.416,1.367-0.822,1.99
				C113.808,130.564,113.282,131.09,112.642,131.518z M107.907,124.422c-0.332,0.223-0.596,0.494-0.789,0.814
				c-0.194,0.322-0.32,0.66-0.377,1.016c-0.057,0.359-0.046,0.721,0.032,1.092c0.077,0.369,0.226,0.719,0.444,1.045
				c0.213,0.318,0.476,0.588,0.791,0.805c0.313,0.219,0.646,0.369,0.996,0.455c0.352,0.084,0.713,0.098,1.084,0.041
				c0.371-0.055,0.725-0.195,1.056-0.416s0.595-0.492,0.79-0.814c0.193-0.322,0.318-0.66,0.377-1.016
				c0.057-0.355,0.045-0.723-0.037-1.096c-0.08-0.375-0.227-0.721-0.439-1.039c-0.218-0.328-0.482-0.598-0.795-0.813
				s-0.643-0.363-0.994-0.447c-0.35-0.084-0.711-0.098-1.083-0.043C108.592,124.063,108.239,124.201,107.907,124.422z"/>
		</g>
	</g>
	<polygon fill="#FFFFFF" points="15.749,52.884 14.542,56.591 10.645,56.591 13.798,58.883 12.595,62.591 15.749,60.299 
		18.903,62.591 17.698,58.883 20.852,56.591 16.952,56.591 	"/>
	<polygon fill="#FFFFFF" points="15.749,87.412 14.542,91.119 10.645,91.119 13.798,93.412 12.595,97.117 15.749,94.828 
		18.903,97.117 17.698,93.412 20.852,91.119 16.952,91.119 	"/>
	<g>
		<path d="M113.987,83.074c-6.934,9.717-13.688,13.277-18.799,16.014c7.484,0.045,9.252,1.379,9.252,1.379
			c-4.973,4.34-8.989,6.742-12.237,7.742l-0.161-0.236c0,0,0.09-0.686,0.4-0.969c0.31-0.283,1.551-0.967,1.74-2.814
			c-0.348,0.582-1.457,1.887-1.778,1.961c-0.015-0.736,0.049-1.549,0.425-2.219c0.375-0.67,1.188-1.754,1.046-3.137
			c-0.259,0.529-0.696,1.369-1.241,1.383c-0.256-0.271-0.953-1.307-0.178-3.527c-0.193-0.514-0.426-1.252-0.285-1.924
			c-0.232,0.959-0.49,1.537-0.761,1.781c-0.388-0.451-0.815-0.98-1.034-3.176s-0.182-2.078-0.711-2.814
			c0.053,0.852,0.092,3.486-0.282,3.385c-0.376-0.105-1.603-1.434-1.808-2.57c-0.206-1.137-0.118-2.467-1.047-3.643
			c0.182,0.828,0.414,2.273,0.066,2.934c-0.658-0.092-3.047-1.279-3.475-5.256c-0.037,1.123-0.104,2.799-0.569,2.387
			c0,0-0.685-0.346-1.231-1.441c-0.547-1.094-1.438-4.295-1.658-4.602V68.154c0,0-0.42-7.623,9.963-7.623h1.91
			c-0.109,0.242-0.17,0.513-0.17,0.797c0,1.07,0.869,1.938,1.938,1.938c1.073,0,1.941-0.868,1.941-1.938
			c0-0.284-0.06-0.555-0.172-0.797h4.728c0.411,0,0.741-1.687,0.741-3.765c0-2.079-0.33-3.765-0.741-3.765h-4.075
			c0.123-0.303,0.193-0.636,0.193-0.986c0-1.443-1.169-2.611-2.615-2.611c-1.441,0-2.612,1.168-2.612,2.611
			c0,0.351,0.069,0.684,0.195,0.986H78.589v-5.475c1.201-0.367,2.326-0.914,3.341-1.609c0.853,0.337,1.21,0.131,1.7,0.085
			c-0.566-0.159-0.834-0.423-0.961-0.634c0.928-0.74,1.742-1.617,2.422-2.594c0.162,0.402,0.344,1.033,0.33,1.834
			c0.568-0.586,0.934-0.893,1.157-1.945c0.142,1.297,0.021,1.58-0.242,2.453c0.89,0.425,1.013,0.831,0.931,1.074
			c0.692-0.969,2.27-3.828-0.701-6.263c0.465-1.298,0.721-2.695,0.721-4.153c0-6.784-5.501-12.283-12.288-12.283
			c-6.783,0-12.284,5.499-12.284,12.283c0,2.09,0.521,4.056,1.441,5.776c-0.958,0.68-2.377,2.169-2.203,4.958
			c-0.969,1.391-1.422,1.875-1.615,4.011c-0.406,1.046-0.682,1.646-0.455,2.481h-0.766c0.125-0.303,0.193-0.636,0.193-0.986
			c0-1.443-1.173-2.611-2.615-2.611c-1.441,0-2.613,1.168-2.613,2.611c0,0.351,0.066,0.684,0.195,0.986h-4.074
			c-0.412,0-0.743,1.688-0.743,3.765c0,2.081,0.331,3.765,0.743,3.765h4.511c-0.098,0.246-0.154,0.516-0.154,0.797
			c0,1.177,0.956,2.133,2.136,2.133c1.179,0,2.134-0.956,2.134-2.133V61.32c0.166,0.438,0.577,0.848,1.501,0.944
			c0.021,1.615-0.133,2.924,1.693,4.5c-0.037,1.038-0.461,3.347,2.289,4.827c0.076,1.02,0.248,3.057,2.809,3.902
			c0.459,1.424,0.459,2.153,2.519,3.598c0.421,1.113,1.479,2.9,3.173,3.498c0.65,1.289,1.229,2.498,3.535,3.631
			c0.655,1.061,1.001,2.48,3.367,2.867c0.77,1.096,0.922,1.902,3.575,2.691c0.481,1.23,0.614,2.059,3.173,2.828
			c0.385,1.285,0.559,2.209,2.651,3.074c0.253,1.328,0.115,1.48,1.31,3.096c-0.021,1.152-0.174,1.998,0.654,3.326
			c-0.329,1.406-0.597,2.346-0.134,4.039l0.159,0.359c-10.149,2.246-12.078-10.232-12.266-18.51l-0.909-0.797v20.355
			c0,0,0.06,5.527,9.225,0.35c3.935-0.299,12.05,0.25,24.251-17.578c-4.032,6.92-14.891,22.605-36.404,25.742
			c0-2.186,0-27.119,0-31.434c-0.014-0.01-2.531-1.783-2.576-3.557c-1.143-0.643-1.143-0.643-1.143-0.643l-0.33,0.643
			c0,0,2.564,25.223-9.422,25.688c0.008-0.283-0.139-0.732-0.239-0.914c-0.137-0.25-0.159-0.502-0.046-1.094
			c0.207-2.326-0.021-3.08-0.204-3.445c-0.185-0.365-0.023-0.48,0.25-0.594c0.389-0.363,0.138-1.094,0.138-1.094
			s0.114-0.572,0.114-0.799c0-0.229-0.753-0.502-0.937-0.412c-0.182,0.092,0.046,0.389,0.411,0.504
			c0.365,0.111-0.098,0.297-0.098,0.297s-0.929,0.088-0.337,0.5c0.596,0.41,0.273,0.73,0,0.891
			c-0.979-1.027-2.211-1.688-2.211-1.688l-0.105,0.639c0,0,0.425-0.365,1.313,1.184c0.89,1.553,0.456,2.123,0.252,2.328
			c-0.206,0.205-0.435,0.113-0.845-0.137c-0.342-0.182-1.688-1.916-1.688-1.916c0.592,1.209,1.574,2.873,2.121,3.742
			c0.547,0.865,0,1.094,0,1.094s-0.16,0.113-0.844-0.045c-0.686-0.16-1.895-2.738-2.121-3.49c-0.271,1.508,0.827,3.166,1.412,3.918
			c-3.259-0.986-7.3-3.395-12.309-7.764c0,0,1.769-1.334,9.254-1.379c-5.111-2.736-11.864-6.297-18.8-16.014
			c-0.685,0.729-7.437,10.813,3.605,26.918c0.591-2.51,1.139-5.887,2.554-8.029c3.013,4.059,9.72,13.594,20.897,16.926
			c0,0,11.933,3.379,11.933,7.619c0-4.24,11.932-7.619,11.932-7.619c11.177-3.332,17.885-12.867,20.895-16.926
			c1.416,2.143,1.963,5.52,2.555,8.029C121.426,93.887,114.671,83.803,113.987,83.074z M95.724,54.036h3.578v0.776h-3.578V54.036z
			 M95.724,55.975h3.578v1.553h-3.578V55.975z M94.687,61.328c0,0.764-0.619,1.381-1.383,1.381s-1.383-0.617-1.383-1.381
			c0-0.184,0.035-0.356,0.1-0.518c0.204-0.508,0.703-0.866,1.283-0.866c0.581,0,1.079,0.358,1.283,0.866
			c0.014,0.033,0.024,0.064,0.033,0.097c0.043,0.132,0.066,0.271,0.066,0.415V61.328z M93.304,50.342
			c0.924,0,1.676,0.749,1.676,1.673c0,0.225-0.045,0.438-0.126,0.633c-0.079,0.195-0.196,0.369-0.34,0.52
			c0.008,0.059,0.018,0.115,0.018,0.176v2.938c0,0.678-0.55,1.229-1.228,1.229s-1.229-0.551-1.229-1.229v-2.938
			c0-0.061,0.01-0.117,0.018-0.176c-0.142-0.15-0.262-0.324-0.34-0.52c-0.08-0.195-0.124-0.408-0.124-0.633
			C91.629,51.091,92.38,50.342,93.304,50.342z M54.277,57.528h-3.579v-1.553h3.579V57.528z M54.277,54.812h-3.579v-0.776h3.579
			V54.812z M58.076,61.328c0,0.764-0.618,1.381-1.382,1.381s-1.385-0.617-1.385-1.381c0-0.184,0.037-0.356,0.1-0.518
			c0.205-0.508,0.703-0.866,1.285-0.866c0.58,0,1.079,0.358,1.282,0.866c0.013,0.033,0.025,0.064,0.034,0.097
			c0.043,0.132,0.065,0.271,0.065,0.415V61.328z M58.245,52.648c-0.08,0.195-0.197,0.369-0.34,0.52
			c0.008,0.059,0.018,0.115,0.018,0.176v2.938c0,0.678-0.551,1.229-1.229,1.229s-1.227-0.551-1.227-1.229v-2.938
			c0-0.061,0.01-0.117,0.018-0.176c-0.144-0.15-0.262-0.324-0.342-0.52s-0.124-0.408-0.124-0.633c0-0.924,0.75-1.673,1.675-1.673
			c0.926,0,1.676,0.749,1.676,1.673C58.37,52.24,58.326,52.453,58.245,52.648z M87.377,58.669
			c-1.196-0.012-9.321,1.211-12.071,5.468c0,0,0.401-5.017,11.919-6.194c0.848-0.07,1.507-0.188,1.577,0.164
			C88.873,58.46,88.573,58.684,87.377,58.669z M78.468,44.29V41c1.119-0.263,2.367-1.741,2.828-2.63
			C83.829,43.5,78.468,44.29,78.468,44.29z M74.999,39.478c-1.529,0-2.769-1.241-2.769-2.77c0-1.529,1.239-2.769,2.769-2.769
			c1.531,0,2.769,1.239,2.769,2.769C77.768,38.237,76.53,39.478,74.999,39.478z M77.401,41.503v9.041
			c0,0.663-0.629,1.201-1.408,1.201v-9.762C76.491,41.889,76.962,41.726,77.401,41.503z M74.005,41.984v9.762
			c-0.777,0-1.407-0.538-1.407-1.201v-9.041C73.036,41.726,73.509,41.889,74.005,41.984z M74.999,32.653
			c-2.401,0-4.492,1.155-5.58,2.859c0.153-3.229,2.594-5.796,5.58-5.796c2.988,0,5.429,2.566,5.581,5.796
			C79.491,33.808,77.401,32.653,74.999,32.653z M70.313,25.809c5.919-3.387,12.593,0.97,14.369,3.979
			c1.554,2.631,0.23,2.532-1.184,3.42c-1.414,0.887-2.335-0.296-2.729-0.79c-3.946-6.28-9.733-2.531-9.733-2.531
			c-0.848,0.437-1.218-0.032-2.171-1.381S69.394,26.302,70.313,25.809z M65.413,33.405c2.334-0.394,2.334,3.157,2.139,4.638
			c-1.119,0-2.302,1.381-2.302,1.381v0.131C64.395,37.122,64.264,35.345,65.413,33.405z M62.569,50.347
			c0.578-0.258,2.412-1.672,3.151-2.604c-0.677,0.515-3.151,1.35-3.151,1.35s-0.258-1.092,0.452-2.508c0,0,1.993-1.654,3.849-2.322
			c-0.891,0-1.064-0.296-2.885,0.396c0.029-1.027,1.064-1.678,1.064-1.678c1.092-0.299,3.093-1.389,4.191-2.107
			c-0.422,0.084-1.945,0.211-2.536,0.126c0.17-1.606,2.45-2.197,3.297-2.282c-0.126,0.508,0.381,1.775,0.804,2.41
			c-0.254,1.1-1.522,2.029-2.367,2.409c-0.113,0.474-0.541,1.31-0.916,1.983c1.152,0.886,2.465,1.571,3.889,2.006v5.475h-7.898
			c0.21-0.363,0.612-0.984,1.146-1.434C59.966,53.978,62.025,51.246,62.569,50.347z M59.116,54.036h31.769v0.776H59.116V54.036z
			 M59.116,57.528v-1.553h31.769v1.553H78.103c-3.599,0.271-3.361,3.431-3.328,6.385c-2.274-3.396-6.42-3.769-8.321-4.144
			c0.782-0.645,1.972-0.984,3.464-0.984c1.494,0,2.243,0.033,3.907-0.375c-0.59-0.389-1.712-0.674-2.923-0.882H59.116z
			 M79.267,87.418c-0.236-0.383-0.58-0.855-1.109-1.238c-0.218-0.672-0.602-1.455-1.057-2.129c-0.055-1.129-0.344-1.42-1.002-3.75
			c0.109,2.639-0.055,3.021-0.344,3.75c-1.948-0.711-2.529-6.279-2.529-6.279c-0.111,0.781-0.4,1.82-0.71,2.42
			c-2.368-1.438-2.351-5.043-2.458-6.844c-0.329,0.783-0.346,1.82-0.385,3.405c-1.472-0.674-1.781-3.586-2.054-7.264
			C67.562,72,67.255,72.4,66.71,73.238c-1.622-0.49-1.531-6.172-1.531-6.172s-0.545,1.694-0.838,2.404
			c-1.072-0.419-0.909-3.643-0.744-4.551c0.162-0.911,0.29-1.912,0.216-2.584c-0.491,0.419-0.618,1.328-0.689,1.82
			c-0.073,0.49-0.595,0.6-0.595,0.6c-1.149-1.46-0.895-3.075-0.446-4.225h2.117c7.644,0.006,6.675,11.694,6.675,13.273
			c1.091,0.77,1.737,1.697,2.386,2.831c1.052,0.365,2.55,2.469,2.55,2.469s-0.244-6.474-0.244-9.106
			c0-2.631,0.932-2.266,2.188-0.121l0.08,11.049c0,0,1.217,2.506,1.434,2.98C79.485,84.377,79.267,87.418,79.267,87.418z
			 M38.386,101.188c-1.871,0.09-6.343-6.525-2.327-16.518c0,0,9.079,10.904,15.924,13.688c-2.782,0.412-4.062,0.639-4.062,0.639
			s-7.619-4.563-10.814-10.768C38.248,93.02,40.255,101.096,38.386,101.188z M62.188,117.566c-3.468-1.422-4.623-2.244-4.045-3.244
			c0.577-1,3.066-0.043,4.623,0.424C60.723,115.635,62.188,117.566,62.188,117.566z M40.119,95.027
			c2.737,3.557,12.912,15.557,22.311,14.234c0,0,0.981,4.016,8.123,3.377c0.5-0.045,2.53-0.273,3.649,4.631
			C74.202,117.27,48.514,112.182,40.119,95.027z M74.999,123.557h-0.156c-4.097-3.512-7.295-4.141-7.879-4.322
			c-0.586-0.18-2.162-0.539-3.063-1.531c-0.899-0.99,0.181-2.207,2.837-1.846c5.404,0.99,8.262,3.422,8.262,3.422V123.557z
			 M111.683,101.188c-1.87-0.092,0.137-8.168,1.277-12.959c-3.195,6.205-10.814,10.768-10.814,10.768s-1.277-0.227-4.06-0.639
			c6.844-2.783,15.923-13.688,15.923-13.688C118.024,94.662,113.553,101.277,111.683,101.188z"/>
		<path d="M61.268,100.199c-0.265-0.477-0.894-1.697-2.364-0.629c0,0,0.064,0.127,0.881,0c-0.126,0.24-0.139,0.402-0.139,0.402
			S60.563,99.635,61.268,100.199z"/>
		<path d="M57.81,98.844c-0.4,0.426-0.236,0.752,0,0.621c-0.025,0.32-0.137,1.262,0.365,0.91c0,0-0.479-1.068,0.992-1.531
			c-0.199-0.178-0.527-0.24-0.816,0C58.414,98.502,58.212,98.416,57.81,98.844z"/>
		<path d="M82.913,46.509l-0.229,0.098c0.002,0.003,0.004,0.004,0.006,0.008c1.792,2.822,4.314-0.105,4.314-0.105s0,0-0.311-0.197
			C84.396,48.187,82.913,46.509,82.913,46.509z"/>
	</g>
</g>
</svg>
