<?xml version="1.0" encoding="utf-8"?>
<!-- Generator: Adobe Illustrator 15.1.0, SVG Export Plug-In . SVG Version: 6.00 Build 0)  -->
<!DOCTYPE svg PUBLIC "-//W3C//DTD SVG 1.1//EN" "http://www.w3.org/Graphics/SVG/1.1/DTD/svg11.dtd">
<svg version="1.1" id="Layer_1" xmlns="http://www.w3.org/2000/svg" xmlns:xlink="http://www.w3.org/1999/xlink" x="0px" y="0px"
	 width="32px" height="32px" viewBox="0 0 32 32" enable-background="new 0 0 32 32" xml:space="preserve">
<g>
	<path d="M28.11,18.509c-2.153,3.019-4.251,4.124-5.839,4.975c2.324,0.014,2.874,0.428,2.874,0.428
		c-1.545,1.349-2.793,2.095-3.802,2.405l-0.05-0.073c0,0,0.027-0.213,0.124-0.302c0.097-0.088,0.482-0.3,0.541-0.874
		c-0.108,0.181-0.453,0.586-0.553,0.609c-0.005-0.229,0.016-0.481,0.132-0.689c0.117-0.208,0.369-0.545,0.325-0.975
		c-0.08,0.165-0.217,0.426-0.386,0.43c-0.079-0.084-0.296-0.405-0.055-1.096c-0.061-0.159-0.133-0.389-0.089-0.598
		c-0.072,0.298-0.152,0.478-0.236,0.554c-0.12-0.141-0.253-0.305-0.321-0.986s-0.057-0.646-0.221-0.874
		c0.017,0.264,0.028,1.083-0.088,1.051c-0.117-0.032-0.498-0.445-0.562-0.798c-0.063-0.354-0.037-0.767-0.325-1.132
		c0.057,0.257,0.129,0.706,0.021,0.911c-0.204-0.028-0.946-0.397-1.079-1.633c-0.012,0.35-0.032,0.87-0.177,0.741
		c0,0-0.213-0.106-0.383-0.447c-0.17-0.34-0.446-1.334-0.515-1.43v-4.832c0,0-0.131-2.368,3.095-2.368h0.593
		c-0.033,0.075-0.053,0.159-0.053,0.247c0,0.333,0.271,0.603,0.603,0.603c0.333,0,0.603-0.27,0.603-0.603
		c0-0.088-0.019-0.172-0.054-0.247h1.469c0.128,0,0.23-0.524,0.23-1.17s-0.103-1.169-0.23-1.169h-1.266
		c0.038-0.094,0.06-0.197,0.06-0.307c0-0.448-0.362-0.811-0.812-0.811c-0.448,0-0.812,0.362-0.812,0.811
		c0,0.109,0.021,0.213,0.061,0.307h-3.819V7.466c0.373-0.113,0.723-0.283,1.037-0.499c0.266,0.104,0.376,0.04,0.528,0.026
		c-0.176-0.05-0.259-0.132-0.299-0.197c0.289-0.229,0.542-0.502,0.753-0.806c0.05,0.125,0.106,0.321,0.103,0.569
		c0.177-0.182,0.29-0.277,0.359-0.604c0.044,0.402,0.006,0.49-0.075,0.762c0.276,0.132,0.314,0.258,0.289,0.334
		c0.215-0.302,0.705-1.189-0.218-1.946c0.145-0.403,0.224-0.837,0.224-1.29C19.816,1.708,18.107,0,15.999,0
		c-2.106,0-3.815,1.708-3.815,3.816c0,0.649,0.162,1.26,0.448,1.794c-0.298,0.211-0.739,0.674-0.685,1.54
		c-0.301,0.432-0.442,0.582-0.502,1.246c-0.126,0.324-0.212,0.511-0.142,0.771h-0.237c0.038-0.094,0.06-0.197,0.06-0.307
		c0-0.448-0.364-0.811-0.813-0.811c-0.447,0-0.812,0.362-0.812,0.811c0,0.109,0.021,0.213,0.061,0.307H8.297
		c-0.128,0-0.23,0.524-0.23,1.169c0,0.646,0.103,1.17,0.23,1.17h1.401c-0.03,0.076-0.048,0.16-0.048,0.247
		c0,0.366,0.297,0.663,0.663,0.663s0.663-0.297,0.663-0.663v-0.002c0.052,0.136,0.18,0.263,0.466,0.293
		c0.007,0.502-0.041,0.908,0.526,1.398c-0.012,0.322-0.144,1.039,0.711,1.499c0.023,0.316,0.077,0.949,0.873,1.212
		c0.143,0.443,0.143,0.669,0.782,1.118c0.131,0.346,0.459,0.901,0.985,1.087c0.202,0.4,0.382,0.775,1.098,1.128
		c0.204,0.329,0.312,0.771,1.046,0.891c0.239,0.34,0.287,0.591,1.111,0.836c0.149,0.382,0.19,0.64,0.985,0.878
		c0.119,0.399,0.174,0.687,0.823,0.955c0.079,0.413,0.036,0.46,0.407,0.962c-0.007,0.357-0.054,0.62,0.203,1.033
		c-0.103,0.437-0.186,0.729-0.042,1.255l0.05,0.111c-3.152,0.697-3.752-3.179-3.81-5.75l-0.283-0.247v6.323
		c0,0,0.019,1.717,2.866,0.108c1.222-0.093,3.742,0.077,7.532-5.461c-1.252,2.15-4.625,7.022-11.308,7.997c0-0.68,0-8.425,0-9.765
		c-0.005-0.003-0.786-0.554-0.801-1.104c-0.354-0.2-0.354-0.2-0.354-0.2l-0.103,0.2c0,0,0.797,7.835-2.927,7.979
		c0.002-0.088-0.043-0.228-0.074-0.284c-0.043-0.078-0.05-0.156-0.015-0.34c0.064-0.723-0.007-0.957-0.063-1.07
		s-0.007-0.149,0.078-0.185c0.12-0.112,0.043-0.34,0.043-0.34s0.035-0.178,0.035-0.248c0-0.071-0.234-0.155-0.291-0.128
		c-0.057,0.028,0.015,0.121,0.128,0.156s-0.03,0.093-0.03,0.093s-0.289,0.027-0.104,0.155c0.185,0.127,0.085,0.227,0,0.276
		c-0.305-0.319-0.688-0.524-0.688-0.524l-0.032,0.199c0,0,0.132-0.114,0.408,0.367c0.276,0.482,0.142,0.659,0.078,0.724
		c-0.064,0.063-0.135,0.035-0.263-0.043c-0.106-0.057-0.524-0.595-0.524-0.595c0.185,0.375,0.489,0.893,0.659,1.162
		c0.17,0.269,0,0.34,0,0.34s-0.05,0.035-0.262-0.014c-0.213-0.05-0.589-0.851-0.659-1.085c-0.084,0.469,0.257,0.983,0.438,1.218
		c-1.013-0.307-2.268-1.055-3.823-2.412c0,0,0.549-0.414,2.874-0.428c-1.587-0.851-3.685-1.956-5.84-4.975
		c-0.212,0.227-2.31,3.358,1.12,8.361c0.184-0.779,0.354-1.828,0.794-2.494c0.936,1.261,3.019,4.223,6.491,5.258
		c0,0,3.706,1.05,3.706,2.366c0-1.316,3.707-2.366,3.707-2.366c3.472-1.035,5.556-3.997,6.49-5.258
		c0.439,0.666,0.609,1.715,0.794,2.494C30.422,21.867,28.323,18.735,28.11,18.509z M22.438,9.488h1.111v0.241h-1.111V9.488z
		 M22.438,10.091h1.111v0.482h-1.111V10.091z M22.115,11.753c0,0.237-0.192,0.43-0.43,0.43s-0.43-0.192-0.43-0.43
		c0-0.057,0.012-0.11,0.031-0.16c0.063-0.158,0.219-0.27,0.398-0.27c0.181,0,0.335,0.111,0.398,0.27
		c0.005,0.01,0.008,0.02,0.011,0.029c0.014,0.041,0.021,0.084,0.021,0.129V11.753z M21.686,8.341c0.287,0,0.521,0.232,0.521,0.52
		c0,0.07-0.014,0.136-0.039,0.196c-0.024,0.062-0.061,0.115-0.105,0.162c0.003,0.018,0.006,0.035,0.006,0.055v0.912
		c0,0.211-0.171,0.382-0.382,0.382c-0.21,0-0.382-0.171-0.382-0.382V9.273c0-0.02,0.004-0.037,0.006-0.055
		c-0.044-0.047-0.081-0.101-0.105-0.162c-0.025-0.061-0.038-0.126-0.038-0.196C21.166,8.573,21.398,8.341,21.686,8.341z
		 M9.563,10.573H8.451v-0.482h1.111V10.573z M9.563,9.729H8.451V9.488h1.111V9.729z M10.743,11.753c0,0.237-0.192,0.43-0.43,0.43
		s-0.43-0.192-0.43-0.43c0-0.057,0.012-0.11,0.031-0.16c0.063-0.158,0.218-0.27,0.398-0.27s0.336,0.111,0.398,0.27
		c0.004,0.01,0.008,0.02,0.011,0.029c0.014,0.041,0.021,0.084,0.021,0.129V11.753z M10.796,9.057
		c-0.025,0.062-0.062,0.115-0.106,0.162c0.003,0.018,0.006,0.035,0.006,0.055v0.912c0,0.211-0.171,0.382-0.382,0.382
		c-0.21,0-0.381-0.171-0.381-0.382V9.273c0-0.02,0.003-0.037,0.006-0.055C9.894,9.172,9.856,9.118,9.832,9.057
		C9.808,8.996,9.794,8.931,9.794,8.86c0-0.287,0.232-0.52,0.52-0.52c0.288,0,0.521,0.232,0.521,0.52
		C10.834,8.931,10.82,8.996,10.796,9.057z M19.845,10.928c-0.372-0.004-2.896,0.376-3.75,1.698c0,0,0.125-1.559,3.703-1.924
		c0.263-0.022,0.468-0.059,0.489,0.051C20.31,10.862,20.217,10.932,19.845,10.928z M17.077,6.461V5.439
		c0.348-0.082,0.735-0.541,0.879-0.817C18.742,6.215,17.077,6.461,17.077,6.461z M16,4.966c-0.476,0-0.86-0.386-0.86-0.86
		c0-0.475,0.385-0.86,0.86-0.86s0.859,0.385,0.859,0.86C16.859,4.581,16.476,4.966,16,4.966z M16.746,5.595v2.808
		c0,0.206-0.195,0.373-0.438,0.373V5.744C16.463,5.715,16.609,5.664,16.746,5.595z M15.691,5.744v3.032
		c-0.242,0-0.438-0.167-0.438-0.373V5.595C15.39,5.664,15.537,5.715,15.691,5.744z M16,2.846c-0.746,0-1.396,0.359-1.733,0.888
		C14.314,2.731,15.072,1.934,16,1.934s1.687,0.797,1.733,1.801C17.396,3.205,16.746,2.846,16,2.846z M14.544,0.72
		c1.839-1.052,3.912,0.301,4.464,1.236c0.482,0.817,0.071,0.787-0.367,1.063c-0.439,0.275-0.726-0.092-0.848-0.246
		c-1.227-1.951-3.023-0.786-3.023-0.786c-0.264,0.136-0.379-0.01-0.675-0.429S14.259,0.873,14.544,0.72z M13.022,3.08
		c0.725-0.122,0.725,0.98,0.664,1.44c-0.348,0-0.715,0.429-0.715,0.429V4.99C12.706,4.234,12.665,3.682,13.022,3.08z M12.139,8.343
		c0.18-0.08,0.749-0.52,0.979-0.81c-0.21,0.16-0.979,0.42-0.979,0.42s-0.08-0.34,0.141-0.779c0,0,0.619-0.514,1.195-0.722
		c-0.276,0-0.331-0.092-0.896,0.123c0.01-0.318,0.331-0.521,0.331-0.521c0.339-0.093,0.961-0.432,1.302-0.655
		c-0.131,0.026-0.604,0.065-0.787,0.039c0.053-0.499,0.761-0.683,1.023-0.709c-0.039,0.158,0.118,0.552,0.25,0.749
		c-0.079,0.342-0.473,0.631-0.735,0.749c-0.035,0.146-0.168,0.406-0.284,0.615c0.357,0.275,0.766,0.488,1.208,0.623v1.701h-2.454
		c0.065-0.113,0.19-0.306,0.356-0.445C11.33,9.471,11.97,8.621,12.139,8.343z M11.066,9.488h9.868v0.241h-9.868V9.488z
		 M11.066,10.573v-0.482h9.868v0.482h-3.971c-1.118,0.084-1.044,1.065-1.034,1.983c-0.706-1.055-1.994-1.171-2.585-1.287
		c0.243-0.2,0.613-0.307,1.076-0.307c0.465,0,0.697,0.011,1.214-0.116c-0.184-0.12-0.531-0.209-0.908-0.273H11.066z M17.325,19.857
		c-0.073-0.118-0.18-0.266-0.345-0.384c-0.067-0.209-0.187-0.452-0.328-0.662c-0.017-0.351-0.106-0.44-0.311-1.164
		c0.033,0.819-0.018,0.938-0.107,1.164c-0.605-0.221-0.785-1.95-0.785-1.95c-0.035,0.243-0.125,0.565-0.221,0.752
		c-0.735-0.446-0.73-1.567-0.764-2.126c-0.103,0.243-0.107,0.565-0.119,1.058c-0.458-0.21-0.554-1.114-0.639-2.257
		c-0.018,0.78-0.113,0.904-0.282,1.165c-0.504-0.152-0.476-1.917-0.476-1.917s-0.169,0.526-0.26,0.746
		c-0.334-0.13-0.283-1.131-0.231-1.413c0.05-0.283,0.09-0.594,0.066-0.803c-0.152,0.13-0.191,0.412-0.214,0.565
		c-0.022,0.152-0.185,0.187-0.185,0.187c-0.357-0.454-0.278-0.956-0.139-1.313h0.658c2.374,0.002,2.073,3.633,2.073,4.123
		c0.339,0.239,0.539,0.527,0.741,0.879c0.326,0.114,0.792,0.768,0.792,0.768s-0.076-2.012-0.076-2.829s0.289-0.704,0.68-0.037
		l0.024,3.432c0,0,0.378,0.778,0.445,0.926C17.394,18.913,17.325,19.857,17.325,19.857z M4.627,24.135
		c-0.582,0.028-1.971-2.026-0.724-5.131c0,0,2.82,3.388,4.947,4.252c-0.864,0.128-1.262,0.198-1.262,0.198s-2.367-1.417-3.359-3.345
		C4.584,21.598,5.207,24.106,4.627,24.135z M12.021,29.223c-1.077-0.441-1.437-0.697-1.257-1.008s0.953-0.013,1.437,0.132
		C11.565,28.623,12.021,29.223,12.021,29.223z M5.165,22.222c0.851,1.104,4.011,4.832,6.931,4.422c0,0,0.305,1.247,2.522,1.049
		c0.156-0.014,0.786-0.085,1.134,1.438C15.752,29.131,7.772,27.55,5.165,22.222z M16,31.084h-0.049
		c-1.272-1.091-2.266-1.286-2.447-1.343c-0.182-0.056-0.672-0.168-0.952-0.476c-0.279-0.308,0.057-0.686,0.882-0.573
		C15.112,29,16,29.755,16,29.755V31.084z M27.395,24.135c-0.581-0.028,0.043-2.537,0.397-4.025
		c-0.993,1.928-3.359,3.345-3.359,3.345s-0.397-0.07-1.262-0.198c2.126-0.864,4.946-4.252,4.946-4.252
		C29.364,22.108,27.976,24.163,27.395,24.135z"/>
	<path d="M11.734,23.828c-0.082-0.148-0.277-0.527-0.734-0.195c0,0,0.02,0.039,0.273,0c-0.039,0.074-0.043,0.125-0.043,0.125
		S11.516,23.652,11.734,23.828z"/>
	<path d="M10.66,23.407c-0.124,0.132-0.073,0.233,0,0.192c-0.008,0.1-0.042,0.393,0.113,0.283c0,0-0.148-0.332,0.309-0.476
		c-0.063-0.056-0.164-0.075-0.254,0C10.848,23.301,10.785,23.274,10.66,23.407z"/>
	<path d="M18.458,7.15l-0.071,0.03c0.001,0.001,0.002,0.001,0.002,0.002c0.557,0.877,1.341-0.032,1.341-0.032s0,0-0.097-0.062
		C18.919,7.671,18.458,7.15,18.458,7.15z"/>
</g>
</svg>
